<?xml version="1.0" encoding="UTF-8" standalone="no"?>
<!-- Created with Inkscape (http://www.inkscape.org/) -->

<svg
   xmlns:dc="http://purl.org/dc/elements/1.1/"
   xmlns:cc="http://creativecommons.org/ns#"
   xmlns:rdf="http://www.w3.org/1999/02/22-rdf-syntax-ns#"
   xmlns:svg="http://www.w3.org/2000/svg"
   xmlns="http://www.w3.org/2000/svg"
   xmlns:sodipodi="http://sodipodi.sourceforge.net/DTD/sodipodi-0.dtd"
   xmlns:inkscape="http://www.inkscape.org/namespaces/inkscape"
   width="64px"
   height="64px"
   viewBox="0 0 64 64"
   version="1.1"
   id="SVGRoot"
   inkscape:version="0.92.4 5da689c313, 2019-01-14"
   sodipodi:docname="Limpar.svg">
  <defs
     id="defs835" />
  <sodipodi:namedview
     id="base"
     pagecolor="#ffffff"
     bordercolor="#666666"
     borderopacity="1.0"
     inkscape:pageopacity="0.0"
     inkscape:pageshadow="2"
     inkscape:zoom="2.7068931"
     inkscape:cx="-45.21029"
     inkscape:cy="32"
     inkscape:document-units="px"
     inkscape:current-layer="layer1"
     showgrid="false"
     inkscape:window-width="1366"
     inkscape:window-height="713"
     inkscape:window-x="0"
     inkscape:window-y="27"
     inkscape:window-maximized="1"
     inkscape:grid-bbox="true" />
  <metadata
     id="metadata838">
    <rdf:RDF>
      <cc:Work
         rdf:about="">
        <dc:format>image/svg+xml</dc:format>
        <dc:type
           rdf:resource="http://purl.org/dc/dcmitype/StillImage" />
        <dc:title />
      </cc:Work>
    </rdf:RDF>
  </metadata>
  <g
     inkscape:label="Layer 1"
     inkscape:groupmode="layer"
     id="layer1">
    <path
       style="fill:none;stroke:#000000;stroke-width:0.6884352px;stroke-linecap:butt;stroke-linejoin:miter;stroke-opacity:1"
       d="M 21.652722,13.582879 1.8453475,31.999906 21.652722,50.41712 H 62.154656 V 31.999906 13.582879 Z m 7.066193,5.328311 c 0.581653,0 1.163373,0.207189 1.609069,0.621599 l 9.653997,8.97654 9.654001,-8.97654 c 0.891383,-0.828819 2.326747,-0.828819 3.218135,0 l 0.536355,0.498707 c 0.891388,0.828818 0.891388,2.163424 0,2.992243 l -9.654202,8.976352 9.654202,8.976357 c 0.891392,0.828818 0.891392,2.163419 0,2.992241 l -0.536355,0.498521 c -0.891388,0.828818 -2.326743,0.828818 -3.218135,0 l -9.654001,-8.976357 -9.653997,8.976357 c -0.891392,0.828821 -2.32655,0.828818 -3.217934,0 l -0.536355,-0.498521 c -0.891392,-0.828822 -0.891392,-2.163423 0,-2.992241 l 9.654,-8.976357 -9.654,-8.976352 c -0.891388,-0.828819 -0.891392,-2.163422 0,-2.992243 l 0.536355,-0.498707 c 0.445692,-0.414409 1.027208,-0.621599 1.608865,-0.621599 z"
       id="path817"
       inkscape:connector-curvature="0" />
  </g>
</svg>
