<?xml version="1.0" encoding="UTF-8" standalone="no"?>
<!-- Created with Inkscape (http://www.inkscape.org/) -->

<svg
   xmlns:dc="http://purl.org/dc/elements/1.1/"
   xmlns:cc="http://creativecommons.org/ns#"
   xmlns:rdf="http://www.w3.org/1999/02/22-rdf-syntax-ns#"
   xmlns:svg="http://www.w3.org/2000/svg"
   xmlns="http://www.w3.org/2000/svg"
   xmlns:sodipodi="http://sodipodi.sourceforge.net/DTD/sodipodi-0.dtd"
   xmlns:inkscape="http://www.inkscape.org/namespaces/inkscape"
   width="256px"
   height="256px"
   viewBox="0 0 256 256"
   version="1.1"
   id="SVGRoot"
   inkscape:version="0.92.4 5da689c313, 2019-01-14"
   sodipodi:docname="Relatório.svg">
  <defs
     id="defs1974" />
  <sodipodi:namedview
     id="base"
     pagecolor="#ffffff"
     bordercolor="#666666"
     borderopacity="1.0"
     inkscape:pageopacity="0.0"
     inkscape:pageshadow="2"
     inkscape:zoom="0.93328183"
     inkscape:cx="130.42386"
     inkscape:cy="71.480601"
     inkscape:document-units="px"
     inkscape:current-layer="g823"
     showgrid="false"
     inkscape:window-width="1366"
     inkscape:window-height="713"
     inkscape:window-x="0"
     inkscape:window-y="27"
     inkscape:window-maximized="1"
     inkscape:grid-bbox="true" />
  <metadata
     id="metadata1977">
    <rdf:RDF>
      <cc:Work
         rdf:about="">
        <dc:format>image/svg+xml</dc:format>
        <dc:type
           rdf:resource="http://purl.org/dc/dcmitype/StillImage" />
        <dc:title></dc:title>
      </cc:Work>
    </rdf:RDF>
  </metadata>
  <g
     inkscape:label="Layer 1"
     inkscape:groupmode="layer"
     id="layer1">
    <g
       transform="matrix(2.2048086,0,0,2.2029251,-80.079481,-113.67519)"
       id="g823"
       style="stroke-width:1.71495293;stroke-miterlimit:4;stroke-dasharray:none">
      <g
         id="g2691"
         transform="matrix(1.0761944,0,0,1.0764078,-6.946814,-15.058538)"
         style="stroke-width:1.59337652">
        <path
           transform="matrix(0.45355411,0,0,0.4539419,36.320378,51.601931)"
           id="path2586"
           d="M 33.015625,69 C 23.035099,69 15,77.028 15,87 v 42 c 0,9.972 8.035099,18 18.015625,18 H 43 c 0,-1.2465 0.126038,-2.46285 0.365234,-3.63672 0.239197,-1.17387 0.592268,-2.30534 1.046875,-3.38281 0.454607,-1.07747 1.010019,-2.10129 1.65625,-3.05859 0.646232,-0.95731 1.383196,-1.84874 2.197266,-2.66211 0.81407,-0.81338 1.705939,-1.54768 2.664063,-2.19336 0.958123,-0.64568 1.982156,-1.20204 3.060546,-1.65625 1.07839,-0.45422 2.209895,-0.80593 3.384766,-1.04493 C 58.549871,129.12624 59.768059,129 61.015625,129 H 193.98438 c 1.24756,0 2.46575,0.12624 3.64062,0.36523 1.17487,0.239 2.30638,0.59071 3.38477,1.04493 1.07839,0.45421 2.10242,1.01057 3.06054,1.65625 0.95813,0.64568 1.84999,1.37998 2.66407,2.19336 0.81407,0.81337 1.55103,1.7048 2.19726,2.66211 0.64623,0.9573 1.20164,1.98112 1.65625,3.05859 0.45461,1.07747 0.80768,2.20894 1.04688,3.38281 C 211.87396,144.53715 212,145.7535 212,147 h 9.98438 C 231.9649,147 240,138.972 240,129 V 87 c 0,-9.972 -8.0351,-18 -18.01562,-18 H 212 v 9 c 0,1.2465 -0.12604,2.462852 -0.36523,3.636719 -0.2392,1.173867 -0.59227,2.305344 -1.04688,3.382812 -0.45461,1.077469 -1.01002,2.101289 -1.65625,3.058594 -0.64623,0.957305 -1.38319,1.848734 -2.19726,2.662109 -0.81409,0.813375 -1.70594,1.54768 -2.66407,2.19336 -0.95812,0.645679 -1.98215,1.202031 -3.06054,1.65625 -1.07839,0.454218 -2.2099,0.805929 -3.38477,1.044922 C 196.45013,95.873758 195.23194,96 193.98438,96 H 61.015625 C 59.768059,96 58.549871,95.873758 57.375,95.634766 56.200129,95.395773 55.068624,95.044062 53.990234,94.589844 52.911844,94.135625 51.887811,93.579273 50.929688,92.933594 49.971563,92.287914 49.079695,91.553609 48.265625,90.740234 47.451555,89.926859 46.714591,89.03543 46.068359,88.078125 45.422128,87.12082 44.866716,86.097 44.412109,85.019531 43.957502,83.942063 43.604431,82.810586 43.365234,81.636719 43.126038,80.462852 43,79.2465 43,78 v -9 z"
           style="opacity:1;fill:none;fill-opacity:1;fill-rule:nonzero;stroke:#000000;stroke-width:3.51158953;stroke-linecap:butt;stroke-linejoin:round;stroke-miterlimit:4;stroke-dasharray:none;stroke-dashoffset:0;stroke-opacity:1;paint-order:markers stroke fill"
           inkscape:connector-curvature="0" />
        <rect
           ry="6.5682573"
           y="115.08895"
           x="61.94796"
           height="44.486305"
           width="64.208527"
           id="rect2591"
           style="opacity:1;fill:none;fill-opacity:1;fill-rule:nonzero;stroke:#000000;stroke-width:1.59337652;stroke-linecap:butt;stroke-linejoin:round;stroke-miterlimit:4;stroke-dasharray:none;stroke-dashoffset:0;stroke-opacity:1;paint-order:markers stroke fill" />
        <rect
           style="opacity:1;fill:none;fill-opacity:1;fill-rule:nonzero;stroke:#000000;stroke-width:1.5933764;stroke-linecap:butt;stroke-linejoin:round;stroke-miterlimit:4;stroke-dasharray:none;stroke-dashoffset:0;stroke-opacity:1;paint-order:markers stroke fill"
           id="rect2593"
           width="67.610352"
           height="19.436852"
           x="60.440014"
           y="72.242149"
           ry="3.4708676" />
        <path
           transform="matrix(0.45355411,0,0,0.4539419,36.320378,51.601931)"
           id="path2628"
           d="m 156.97269,162.24484 h 26.25172"
           style="fill:none;stroke:#000000;stroke-width:1.75579476;stroke-linecap:butt;stroke-linejoin:miter;stroke-miterlimit:4;stroke-dasharray:none;stroke-opacity:1"
           inkscape:connector-curvature="0" />
        <path
           transform="matrix(0.45355411,0,0,0.4539419,36.320378,51.601931)"
           id="path2621"
           d="m 107.14891,162.24484 h 44.73398"
           style="fill:none;stroke:#000000;stroke-width:1.75579476;stroke-linecap:butt;stroke-linejoin:miter;stroke-miterlimit:4;stroke-dasharray:none;stroke-opacity:1"
           inkscape:connector-curvature="0" />
        <path
           inkscape:connector-curvature="0"
           id="path2614"
           d="m 77.32058,125.25166 h 6.38268"
           style="fill:none;stroke:#000000;stroke-width:0.79668826;stroke-linecap:butt;stroke-linejoin:miter;stroke-miterlimit:4;stroke-dasharray:none;stroke-opacity:1" />
        <path
           transform="matrix(0.45355411,0,0,0.4539419,36.320378,51.601931)"
           id="path2597"
           d="M 70.182445,162.24484 H 88.129553"
           style="fill:none;stroke:#000000;stroke-width:1.75579476;stroke-linecap:butt;stroke-linejoin:miter;stroke-miterlimit:4;stroke-dasharray:none;stroke-opacity:1"
           inkscape:connector-curvature="0" />
        <path
           transform="matrix(0.45355411,0,0,0.4539419,36.320378,51.601931)"
           id="path2635"
           d="m 132.32838,182.24484 h 50.89603"
           style="fill:none;stroke:#000000;stroke-width:1.75579476;stroke-linecap:butt;stroke-linejoin:miter;stroke-miterlimit:4;stroke-dasharray:none;stroke-opacity:1"
           inkscape:connector-curvature="0" />
        <path
           transform="matrix(0.45355411,0,0,0.4539419,36.320378,51.601931)"
           id="path2645"
           d="M 79.559315,182.24484 H 126.971"
           style="fill:none;stroke:#000000;stroke-width:1.75579476;stroke-linecap:butt;stroke-linejoin:miter;stroke-miterlimit:4;stroke-dasharray:none;stroke-opacity:1"
           inkscape:connector-curvature="0" />
        <path
           transform="matrix(0.45355411,0,0,0.4539419,36.320378,51.601931)"
           id="path2601"
           d="m 70.182446,182.24484 h 6.697205"
           style="fill:none;stroke:#000000;stroke-width:1.75579476;stroke-linecap:butt;stroke-linejoin:miter;stroke-miterlimit:4;stroke-dasharray:none;stroke-opacity:1"
           inkscape:connector-curvature="0" />
        <path
           transform="matrix(0.45355411,0,0,0.4539419,36.320378,51.601931)"
           id="path2659"
           d="m 164.74216,202.24484 h 18.48225"
           style="fill:none;stroke:#000000;stroke-width:1.75579476;stroke-linecap:butt;stroke-linejoin:miter;stroke-miterlimit:4;stroke-dasharray:none;stroke-opacity:1"
           inkscape:connector-curvature="0" />
        <path
           transform="matrix(0.45355411,0,0,0.4539419,36.320378,51.601931)"
           id="path2652"
           d="m 106.07861,202.24484 h 55.18115"
           style="fill:none;stroke:#000000;stroke-width:1.75579476;stroke-linecap:butt;stroke-linejoin:miter;stroke-miterlimit:4;stroke-dasharray:none;stroke-opacity:1"
           inkscape:connector-curvature="0" />
        <path
           transform="matrix(0.45355411,0,0,0.4539419,36.320378,51.601931)"
           id="path2603"
           d="M 70.182445,202.24484 H 103.66652"
           style="fill:none;stroke:#000000;stroke-width:1.75579476;stroke-linecap:butt;stroke-linejoin:miter;stroke-miterlimit:4;stroke-dasharray:none;stroke-opacity:1"
           inkscape:connector-curvature="0" />
        <path
           transform="matrix(0.45355411,0,0,0.4539419,36.320378,51.601931)"
           id="path2666"
           d="m 130.72097,222.24485 h 52.50344"
           style="fill:none;stroke:#000000;stroke-width:1.75579476;stroke-linecap:butt;stroke-linejoin:miter;stroke-miterlimit:4;stroke-dasharray:none;stroke-opacity:1"
           inkscape:connector-curvature="0" />
        <path
           transform="matrix(0.45355411,0,0,0.4539419,36.320378,51.601931)"
           id="path2673"
           d="M 84.379586,222.24485 H 127.23858"
           style="fill:none;stroke:#000000;stroke-width:1.75579476;stroke-linecap:butt;stroke-linejoin:miter;stroke-miterlimit:4;stroke-dasharray:none;stroke-opacity:1"
           inkscape:connector-curvature="0" />
        <path
           transform="matrix(0.45355411,0,0,0.4539419,36.320378,51.601931)"
           id="path2605"
           d="M 70.182446,222.24485 H 81.434298"
           style="fill:none;stroke:#000000;stroke-width:1.75579476;stroke-linecap:butt;stroke-linejoin:miter;stroke-miterlimit:4;stroke-dasharray:none;stroke-opacity:1"
           inkscape:connector-curvature="0" />
      </g>
    </g>
  </g>
</svg>
