<?xml version="1.0" encoding="UTF-8" standalone="no"?>
<!-- Created with Inkscape (http://www.inkscape.org/) -->

<svg
   xmlns:dc="http://purl.org/dc/elements/1.1/"
   xmlns:cc="http://creativecommons.org/ns#"
   xmlns:rdf="http://www.w3.org/1999/02/22-rdf-syntax-ns#"
   xmlns:svg="http://www.w3.org/2000/svg"
   xmlns="http://www.w3.org/2000/svg"
   xmlns:sodipodi="http://sodipodi.sourceforge.net/DTD/sodipodi-0.dtd"
   xmlns:inkscape="http://www.inkscape.org/namespaces/inkscape"
   width="64px"
   height="64px"
   viewBox="0 0 64 64"
   version="1.1"
   id="SVGRoot"
   inkscape:version="0.92.4 5da689c313, 2019-01-14"
   sodipodi:docname="User.svg">
  <defs
     id="defs823" />
  <sodipodi:namedview
     id="base"
     pagecolor="#ffffff"
     bordercolor="#666666"
     borderopacity="1.0"
     inkscape:pageopacity="0.0"
     inkscape:pageshadow="2"
     inkscape:zoom="7.65625"
     inkscape:cx="4.7020408"
     inkscape:cy="32"
     inkscape:document-units="px"
     inkscape:current-layer="layer1"
     showgrid="false"
     inkscape:window-width="1366"
     inkscape:window-height="713"
     inkscape:window-x="0"
     inkscape:window-y="27"
     inkscape:window-maximized="1"
     inkscape:grid-bbox="true" />
  <metadata
     id="metadata826">
    <rdf:RDF>
      <cc:Work
         rdf:about="">
        <dc:format>image/svg+xml</dc:format>
        <dc:type
           rdf:resource="http://purl.org/dc/dcmitype/StillImage" />
        <dc:title />
      </cc:Work>
    </rdf:RDF>
  </metadata>
  <g
     inkscape:label="Layer 1"
     inkscape:groupmode="layer"
     id="layer1">
    <path
       id="circle1049"
       style="opacity:1;fill:none;fill-opacity:1;fill-rule:nonzero;stroke:#000000;stroke-width:1;stroke-linecap:round;stroke-linejoin:round;stroke-miterlimit:4;stroke-dasharray:none;stroke-dashoffset:0;stroke-opacity:1;paint-order:normal"
       d="M 54.817026,51.721214 A 30.146543,30.14428 0 0 1 32.027694,62.132217 30.146543,30.14428 0 0 1 9.2291372,51.710548 M 31.999992,11.52491 A 10.930326,10.929504 0 0 0 21.069564,22.454515 10.930326,10.929504 0 0 0 31.999992,33.383884 10.930326,10.929504 0 0 0 42.930182,22.454515 10.930326,10.929504 0 0 0 31.999992,11.52491 Z M 31.999877,1.8677834 A 30.146543,30.14428 0 0 0 1.8534033,32.012242 30.146543,30.14428 0 0 0 9.2291372,51.710548 23.447312,23.445552 0 0 1 31.999877,33.743418 23.447312,23.445552 0 0 1 54.776162,51.733443 30.146543,30.14428 0 0 0 62.146597,32.012242 30.146543,30.14428 0 0 0 31.999877,1.8677834 Z"
       inkscape:connector-curvature="0" />
  </g>
</svg>
